<svg xmlns="http://www.w3.org/2000/svg" viewBox="0 0 301.86 110.71"><defs><style>.cls-1{fill:#fff;}</style></defs><g id="Capa_2" data-name="Capa 2"><g id="Capa_2-2" data-name="Capa 2"><path class="cls-1" d="M292.35.4V.47H249.14a3.78,3.78,0,0,0-1,.15,3,3,0,0,0-1.95,2.81,2.58,2.58,0,0,0,.83,1.9A3,3,0,0,0,249,6.1h3.46V6h43.21a3.44,3.44,0,0,0,1-.15,2.86,2.86,0,0,0,1.06-.67,3,3,0,0,0,.89-2.14,2.59,2.59,0,0,0-.83-1.9A3,3,0,0,0,295.81.4h-3.46Z"/><path class="cls-1" d="M280.8,37.81v.07H248.39a2,2,0,0,0-.78.15,2.18,2.18,0,0,0-.79.67,3.52,3.52,0,0,0-.67,2.14,3,3,0,0,0,.62,1.9,2,2,0,0,0,1.55.77h2.59v-.07h32.41a2.22,2.22,0,0,0,.79-.15,2.29,2.29,0,0,0,.79-.67,3.66,3.66,0,0,0,.67-2.14,3,3,0,0,0-.63-1.9,2,2,0,0,0-1.54-.77h-2.6Z"/><path class="cls-1" d="M292.35,76.11v.07H249.14a3.44,3.44,0,0,0-1,.15A2.86,2.86,0,0,0,247,77a3,3,0,0,0-.89,2.14A2.59,2.59,0,0,0,247,81a3.07,3.07,0,0,0,2.06.77h3.46v-.07h43.21a3.78,3.78,0,0,0,1-.15,3,3,0,0,0,1.95-2.81,2.58,2.58,0,0,0-.83-1.9,3,3,0,0,0-2.06-.77h-3.46Z"/><path class="cls-1" d="M180,83.05h0a2.62,2.62,0,0,1-1.53-3.58l49.7-77c1.32-2.68,5.75-1.83,5.75,1.09V81.24a2.87,2.87,0,0,1-3,2.71h0a2.87,2.87,0,0,1-3-2.71V16.38L184,81.67A3.14,3.14,0,0,1,180,83.05Z"/><path class="cls-1" d="M125.37,59.05a3.45,3.45,0,0,0,.93-4.61L94,1.79a2.64,2.64,0,0,0-4.89,1.38V81.9a2.64,2.64,0,0,0,2.64,2.64h1.83a2.64,2.64,0,0,0,2.64-2.64v-63l24.26,39.19a3.45,3.45,0,0,0,4.94,1Z"/><path class="cls-1" d="M161.58,1.79l-27.3,44.09a3.56,3.56,0,0,0,0,3.76h0a3.55,3.55,0,0,0,6,0l19-30.75v63A2.64,2.64,0,0,0,162,84.54h1.83a2.64,2.64,0,0,0,2.64-2.64V3.17A2.64,2.64,0,0,0,161.58,1.79Z"/><path class="cls-1" d="M74.2,48.84v-.06a56.41,56.41,0,0,0,.41-6.85A50.61,50.61,0,0,0,71.9,25,39.71,39.71,0,0,0,64.24,11.7l-.4-.45a3.2,3.2,0,0,0-5.56,2.15,3.16,3.16,0,0,0,.81,2.13c.31.34.61.69.91,1.06a34.71,34.71,0,0,1,6.07,11.49,46,46,0,0,1,2.06,13.85A44.25,44.25,0,0,1,66,55.73,34.28,34.28,0,0,1,59.88,67a29.43,29.43,0,0,1-9.73,7.67l0,.09a29.05,29.05,0,0,1-12.82,2.74,28.81,28.81,0,0,1-12.91-2.83A29.4,29.4,0,0,1,14.74,67,34.09,34.09,0,0,1,8.61,55.73a44,44,0,0,1-2.13-13.8A45.65,45.65,0,0,1,8.55,28.08a34.52,34.52,0,0,1,6.07-11.49,29.38,29.38,0,0,1,9.72-7.84A27.18,27.18,0,0,1,34.25,6,3,3,0,0,0,37,3V3a3,3,0,0,0-3.3-3A35.25,35.25,0,0,0,22.22,3,34.66,34.66,0,0,0,10.37,11.7,39.71,39.71,0,0,0,2.71,25,50.61,50.61,0,0,0,0,41.93,49.81,49.81,0,0,0,2.71,58.67a39.29,39.29,0,0,0,7.66,13.21,34.44,34.44,0,0,0,11.85,8.6,36.8,36.8,0,0,0,15.15,3.07,36.38,36.38,0,0,0,15.09-3.07,34.59,34.59,0,0,0,11.79-8.6,39.29,39.29,0,0,0,7.66-13.21,45.82,45.82,0,0,0,2-7.87,2.51,2.51,0,0,0,0-.27C74,50,74.13,49.41,74.2,48.84Z"/><path class="cls-1" d="M165.23,107.38a2,2,0,0,0,2.22,2.22H173v1.11h-5.55c-2.22,0-3.34-1.11-3.34-3.33V98.5c0-2.23,1.12-3.34,3.34-3.34H173v1.11h-5.55a2,2,0,0,0-2.22,2.23Z"/><path class="cls-1" d="M185.22,110.71h-1.11l-1.37-4.44h-6.15l-1.37,4.44h-1.11l4.67-15.55h1.77Zm-8.29-5.55h5.47l-2.73-8.89Z"/><path class="cls-1" d="M186.33,110.71V109.6H193a2,2,0,0,0,2.22-2.22v-1.66a2,2,0,0,0-2.22-2.23h-3.34q-3.33,0-3.33-3.33V98.5q0-3.34,3.33-3.34h6.67v1.11h-6.67a2,2,0,0,0-2.22,2.23v1.66a2,2,0,0,0,2.22,2.22H193q3.33,0,3.33,3.34v1.66q0,3.33-3.33,3.33Z"/><path class="cls-1" d="M208.55,110.71h-1.11l-1.37-4.44h-6.15l-1.37,4.44h-1.11l4.66-15.55h1.78Zm-8.29-5.55h5.47L203,96.27Z"/><path class="cls-1" d="M214.1,95.16H216l4.78,14.44,4.77-14.44h1.89v15.55h-1.11V96.27l-4.67,14.44h-1.77l-4.67-14.44v14.44H214.1Z"/><path class="cls-1" d="M238.54,102.38v1.11h-7.78v6.11h7.78v1.11h-8.89V95.16h8.89v1.11h-7.78v6.11Z"/><path class="cls-1" d="M240.76,110.71l4.83-7.77-4.83-7.78h1.45l4.11,6.62,4.11-6.62h1.44L247,102.94l4.83,7.77h-1.44l-4.11-6.61-4.11,6.61Z"/><path class="cls-1" d="M255.2,95.16v15.55h-1.11V95.16Z"/><path class="cls-1" d="M258.53,107.38a2,2,0,0,0,2.23,2.22h5.55v1.11h-5.55q-3.35,0-3.34-3.33V98.5q0-3.34,3.34-3.34h5.55v1.11h-5.55a2,2,0,0,0-2.23,2.23Z"/><path class="cls-1" d="M278.53,110.71h-1.11l-1.37-4.44H269.9l-1.37,4.44h-1.11l4.67-15.55h1.77Zm-8.29-5.55h5.47L273,96.27Z"/><path class="cls-1" d="M280.75,95.16l7.78,13.33V95.16h1.11v15.55h-1.11l-7.78-13.33v13.33h-1.11V95.16Z"/><path class="cls-1" d="M301.86,110.71h-1.11l-1.37-4.44h-6.15l-1.37,4.44h-1.11l4.66-15.55h1.78Zm-8.29-5.55H299l-2.74-8.89Z"/></g></g></svg>